<svg width="25" height="24" viewBox="0 0 25 24" fill="none" xmlns="http://www.w3.org/2000/svg">
<path d="M14.33 5.545C14.33 6.43613 14.684 7.29075 15.3141 7.92088C15.9442 8.551 16.7989 8.905 17.69 8.905C18.5811 8.905 19.4357 8.551 20.0659 7.92088C20.696 7.29075 21.05 6.43613 21.05 5.545C21.05 4.65387 20.696 3.79924 20.0659 3.16912C19.4357 2.539 18.5811 2.185 17.69 2.185C16.7989 2.185 15.9442 2.539 15.3141 3.16912C14.684 3.79924 14.33 4.65387 14.33 5.545Z" fill="#DEBB7E"/>
<path d="M3.94998 5.545C3.94998 6.43613 4.30398 7.29075 4.9341 7.92088C5.56422 8.551 6.41885 8.905 7.30998 8.905C8.20111 8.905 9.05574 8.551 9.68586 7.92088C10.316 7.29075 10.67 6.43613 10.67 5.545C10.67 4.65387 10.316 3.79924 9.68586 3.16912C9.05574 2.539 8.20111 2.185 7.30998 2.185C6.41885 2.185 5.56422 2.539 4.9341 3.16912C4.30398 3.79924 3.94998 4.65387 3.94998 5.545Z" fill="#DEBB7E"/>
<path d="M17.69 3.50001C18.4706 3.49688 19.228 3.76566 19.832 4.26019C20.436 4.75471 20.849 5.44412 21 6.21001C21.0444 5.99116 21.0662 5.76832 21.065 5.54501C21.0824 5.0932 21.0085 4.64251 20.8476 4.21995C20.6868 3.79738 20.4423 3.41164 20.1288 3.08581C19.8153 2.75998 19.4392 2.50078 19.0232 2.32373C18.6072 2.14668 18.1597 2.05542 17.7075 2.05542C17.2554 2.05542 16.8079 2.14668 16.3918 2.32373C15.9758 2.50078 15.5997 2.75998 15.2862 3.08581C14.9727 3.41164 14.7282 3.79738 14.5674 4.21995C14.4065 4.64251 14.3326 5.0932 14.35 5.54501C14.3505 5.76849 14.374 5.99132 14.42 6.21001C14.5697 5.45085 14.9768 4.7666 15.5725 4.27286C16.1683 3.77911 16.9163 3.50612 17.69 3.50001Z" fill="#F0D5A8"/>
<path d="M7.30999 3.49999C8.08437 3.50057 8.83478 3.76862 9.43428 4.25879C10.0338 4.74896 10.4456 5.43116 10.6 6.18999C10.646 5.9713 10.6695 5.74847 10.67 5.52499C10.6874 5.07318 10.6135 4.62249 10.4526 4.19993C10.2917 3.77736 10.0472 3.39162 9.73375 3.06579C9.42026 2.73996 9.04422 2.48076 8.62818 2.30371C8.21214 2.12666 7.76464 2.0354 7.31249 2.0354C6.86033 2.0354 6.41284 2.12666 5.99679 2.30371C5.58075 2.48076 5.20472 2.73996 4.89122 3.06579C4.57773 3.39162 4.33322 3.77736 4.17235 4.19993C4.01148 4.62249 3.93755 5.07318 3.95499 5.52499C3.94584 5.75427 3.96092 5.98388 3.99999 6.20999C4.15099 5.4441 4.56397 4.75469 5.16798 4.26017C5.772 3.76564 6.52936 3.49686 7.30999 3.49999Z" fill="#F0D5A8"/>
<path d="M14.33 5.545C14.33 6.43613 14.684 7.29075 15.3141 7.92088C15.9442 8.551 16.7989 8.905 17.69 8.905C18.5811 8.905 19.4357 8.551 20.0659 7.92088C20.696 7.29075 21.05 6.43613 21.05 5.545C21.05 4.65387 20.696 3.79924 20.0659 3.16912C19.4357 2.539 18.5811 2.185 17.69 2.185C16.7989 2.185 15.9442 2.539 15.3141 3.16912C14.684 3.79924 14.33 4.65387 14.33 5.545V5.545Z" stroke="#45413C" stroke-width="0.5" stroke-linecap="round" stroke-linejoin="round"/>
<path d="M3.94998 5.545C3.94998 6.43613 4.30398 7.29075 4.9341 7.92088C5.56423 8.551 6.41885 8.905 7.30998 8.905C8.20111 8.905 9.05574 8.551 9.68586 7.92088C10.316 7.29075 10.67 6.43613 10.67 5.545C10.67 4.65387 10.316 3.79924 9.68586 3.16912C9.05574 2.539 8.20111 2.185 7.30998 2.185C6.41885 2.185 5.56423 2.539 4.9341 3.16912C4.30398 3.79924 3.94998 4.65387 3.94998 5.545V5.545Z" stroke="#45413C" stroke-width="0.5" stroke-linecap="round" stroke-linejoin="round"/>
<path opacity="0.15" d="M5.48001 22.585C5.48001 22.8277 6.21962 23.0604 7.53612 23.232C8.85263 23.4036 10.6382 23.5 12.5 23.5C14.3618 23.5 16.1474 23.4036 17.4639 23.232C18.7804 23.0604 19.52 22.8277 19.52 22.585C19.52 22.3423 18.7804 22.1096 17.4639 21.938C16.1474 21.7664 14.3618 21.67 12.5 21.67C10.6382 21.67 8.85263 21.7664 7.53612 21.938C6.21962 22.1096 5.48001 22.3423 5.48001 22.585Z" fill="#45413C"/>
<path d="M19.455 9.815V9.195C19.455 5.895 16.63 3.5 13.14 3.5H11.86C8.36 3.5 5.545 5.875 5.545 9.175V9.79C4.95043 10.2938 4.47287 10.9211 4.14559 11.6284C3.81831 12.3356 3.64919 13.1057 3.65 13.885C3.65 16.695 6.055 19 9.025 19H16C18.97 19 21.375 16.72 21.375 13.91C21.3727 13.1287 21.1997 12.3574 20.8681 11.6501C20.5364 10.9427 20.0541 10.3164 19.455 9.815Z" fill="#DEBB7E"/>
<path d="M19.455 9.815V9.195C19.455 5.895 16.63 3.5 13.14 3.5H11.86C8.36 3.5 5.545 5.875 5.545 9.175V9.79C4.95043 10.2938 4.47287 10.9211 4.14559 11.6284C3.81831 12.3356 3.64919 13.1057 3.65 13.885C3.65031 14.2092 3.68382 14.5326 3.75 14.85C3.93994 13.8209 4.42455 12.869 5.145 12.11C5.40402 11.8418 5.54762 11.4828 5.545 11.11C5.545 7.805 8.37 5.435 11.86 5.435H13.14C16.64 5.435 19.455 7.805 19.455 11.11C19.4524 11.4828 19.596 11.8418 19.855 12.11C20.5754 12.869 21.0601 13.8209 21.25 14.85C21.3162 14.5326 21.3497 14.2092 21.35 13.885C21.3472 13.1099 21.1763 12.3447 20.8492 11.642C20.522 10.9394 20.0463 10.316 19.455 9.815Z" fill="#F0D5A8"/>
<path d="M19.455 9.815V9.195C19.455 5.895 16.63 3.5 13.14 3.5H11.86C8.36 3.5 5.545 5.875 5.545 9.175V9.79C4.95043 10.2938 4.47287 10.9211 4.14559 11.6284C3.81831 12.3356 3.64919 13.1057 3.65 13.885C3.65 16.695 6.055 19 9.025 19H16C18.97 19 21.375 16.72 21.375 13.91C21.3727 13.1287 21.1997 12.3574 20.8681 11.6501C20.5364 10.9427 20.0541 10.3164 19.455 9.815V9.815Z" stroke="#45413C" stroke-width="0.5" stroke-linecap="round" stroke-linejoin="round"/>
<path d="M10.06 18.975C10.06 19.3795 10.3171 19.7674 10.7747 20.0533C11.2322 20.3393 11.8529 20.5 12.5 20.5C13.1471 20.5 13.7677 20.3393 14.2253 20.0533C14.6829 19.7674 14.94 19.3795 14.94 18.975C14.94 18.5706 14.6829 18.1827 14.2253 17.8967C13.7677 17.6107 13.1471 17.45 12.5 17.45C11.8529 17.45 11.2322 17.6107 10.7747 17.8967C10.3171 18.1827 10.06 18.5706 10.06 18.975Z" fill="#F0D5A8" stroke="#45413C" stroke-width="0.5" stroke-linecap="round" stroke-linejoin="round"/>
<path d="M13.415 14.09H11.585C10.7756 14.09 9.99934 14.4111 9.42656 14.983C8.85378 15.5548 8.53133 16.3306 8.53 17.14C8.52734 17.6091 8.67964 18.066 8.96324 18.4397C9.24685 18.8134 9.6459 19.083 10.0984 19.2067C10.551 19.3304 11.0317 19.3012 11.4659 19.1237C11.9002 18.9461 12.2637 18.6302 12.5 18.225C12.7363 18.6302 13.0998 18.9461 13.5341 19.1237C13.9683 19.3012 14.449 19.3304 14.9016 19.2067C15.3541 19.083 15.7532 18.8134 16.0368 18.4397C16.3204 18.066 16.4727 17.6091 16.47 17.14C16.4687 16.3306 16.1462 15.5548 15.5734 14.983C15.0007 14.4111 14.2244 14.09 13.415 14.09Z" fill="#F7E5C6"/>
<path d="M11.585 15.73H13.415C14.0685 15.7322 14.7041 15.9442 15.228 16.3349C15.7519 16.7256 16.1364 17.2742 16.325 17.9C16.4195 17.6577 16.4687 17.4 16.47 17.14C16.4687 16.3306 16.1462 15.5548 15.5734 14.983C15.0007 14.4111 14.2244 14.09 13.415 14.09H11.585C10.7756 14.09 9.99933 14.4111 9.42655 14.983C8.85377 15.5548 8.53132 16.3306 8.53 17.14C8.5313 17.4 8.58046 17.6577 8.675 17.9C8.86356 17.2742 9.24812 16.7256 9.77202 16.3349C10.2959 15.9442 10.9315 15.7322 11.585 15.73Z" fill="#FFF5E3"/>
<path d="M13.415 14.09H11.585C10.7756 14.09 9.99934 14.4111 9.42656 14.983C8.85378 15.5548 8.53133 16.3306 8.53 17.14C8.52734 17.6091 8.67964 18.066 8.96324 18.4397C9.24685 18.8134 9.6459 19.083 10.0984 19.2067C10.551 19.3304 11.0317 19.3012 11.4659 19.1237C11.9002 18.9461 12.2637 18.6302 12.5 18.225C12.7363 18.6302 13.0998 18.9461 13.5341 19.1237C13.9683 19.3012 14.449 19.3304 14.9016 19.2067C15.3541 19.083 15.7532 18.8134 16.0368 18.4397C16.3204 18.066 16.4727 17.6091 16.47 17.14C16.4687 16.3306 16.1462 15.5548 15.5734 14.983C15.0007 14.4111 14.2244 14.09 13.415 14.09V14.09Z" stroke="#45413C" stroke-width="0.5" stroke-linecap="round" stroke-linejoin="round"/>
<path d="M14.025 15C13.9364 15.3334 13.74 15.6283 13.4665 15.8386C13.1929 16.049 12.8576 16.163 12.5125 16.163C12.1674 16.163 11.8321 16.049 11.5585 15.8386C11.285 15.6283 11.0886 15.3334 11 15C11 14.5 11.68 14.085 12.525 14.085C13.37 14.085 14.025 14.5 14.025 15Z" fill="#87898C" stroke="#45413C" stroke-width="0.5" stroke-linecap="round" stroke-linejoin="round"/>
<path d="M15.555 12.26C15.555 12.5026 15.6514 12.7354 15.823 12.907C15.9946 13.0786 16.2273 13.175 16.47 13.175C16.7127 13.175 16.9454 13.0786 17.117 12.907C17.2886 12.7354 17.385 12.5026 17.385 12.26C17.385 12.0173 17.2886 11.7846 17.117 11.613C16.9454 11.4414 16.7127 11.345 16.47 11.345C16.2273 11.345 15.9946 11.4414 15.823 11.613C15.6514 11.7846 15.555 12.0173 15.555 12.26Z" fill="#45413C" stroke="#45413C" stroke-width="0.5" stroke-linecap="round" stroke-linejoin="round"/>
<path d="M7.61499 12.26C7.61499 12.3801 7.63866 12.4991 7.68464 12.6101C7.73062 12.7211 7.79802 12.822 7.88299 12.907C7.96795 12.9919 8.06882 13.0593 8.17984 13.1053C8.29085 13.1513 8.40983 13.175 8.52999 13.175C8.65015 13.175 8.76913 13.1513 8.88015 13.1053C8.99116 13.0593 9.09203 12.9919 9.17699 12.907C9.26196 12.822 9.32936 12.7211 9.37534 12.6101C9.42132 12.4991 9.44499 12.3801 9.44499 12.26C9.44499 12.1398 9.42132 12.0208 9.37534 11.9098C9.32936 11.7988 9.26196 11.6979 9.17699 11.613C9.09203 11.528 8.99116 11.4606 8.88015 11.4146C8.76913 11.3686 8.65015 11.345 8.52999 11.345C8.40983 11.345 8.29085 11.3686 8.17984 11.4146C8.06882 11.4606 7.96795 11.528 7.88299 11.613C7.79802 11.6979 7.73062 11.7988 7.68464 11.9098C7.63866 12.0208 7.61499 12.1398 7.61499 12.26Z" fill="#45413C" stroke="#45413C" stroke-width="0.5" stroke-linecap="round" stroke-linejoin="round"/>
<path d="M19.825 15.2C19.825 15.475 19.325 15.7 18.715 15.7C18.105 15.7 17.605 15.475 17.605 15.2C17.605 14.925 18.105 14.7 18.715 14.7C19.325 14.7 19.825 14.925 19.825 15.2Z" fill="#FFF5E3"/>
<path d="M7.39499 15.2C7.39499 15.475 6.89499 15.7 6.28499 15.7C5.67499 15.7 5.17499 15.475 5.17499 15.2C5.17499 14.925 5.67499 14.7 6.28499 14.7C6.89499 14.7 7.39499 14.925 7.39499 15.2Z" fill="#FFF5E3"/>
</svg>
