<svg width="376" height="331" viewBox="0 0 376 331" fill="none" xmlns="http://www.w3.org/2000/svg">
<path fill-rule="evenodd" clip-rule="evenodd" d="M190.647 8.73694C230.863 3.47832 275.915 -10.0529 309.262 13.064C342.704 36.247 344.316 83.7595 355.402 122.949C365.999 160.409 383.814 198.478 372.224 235.642C360.58 272.974 329.118 301.79 294.176 319.26C262.451 335.123 225.65 332.11 190.647 326.427C160.367 321.511 136.619 302.423 108.936 289.187C72.8769 271.948 20.1401 273.912 4.12601 237.251C-11.6623 201.107 21.8128 162.85 38.0482 126.905C52.3158 95.3162 65.2009 62.604 92.5879 41.3964C120.522 19.7653 155.634 13.3154 190.647 8.73694Z" fill="url(#paint0_linear_8_6)"/>
<defs>
<linearGradient id="paint0_linear_8_6" x1="188" y1="0" x2="188" y2="331" gradientUnits="userSpaceOnUse">
<stop stop-color="#FCA311"/>
<stop offset="1" stop-color="#FCE305"/>
</linearGradient>
</defs>
</svg>
