<svg width="100" height="100" viewBox="0 0 100 100" fill="none" xmlns="http://www.w3.org/2000/svg">
<rect width="100" height="100" rx="8" fill="url(#paint0_linear_9_4)"/>
<g filter="url(#filter0_d_9_4)">
<path d="M49.04 79.96C44.6133 79.96 40.32 79.3733 36.16 78.2C32.0533 76.9733 28.7467 75.4 26.24 73.48L30.64 63.72C33.04 65.48 35.8933 66.8933 39.2 67.96C42.5067 69.0267 45.8133 69.56 49.12 69.56C52.8 69.56 55.52 69.0267 57.28 67.96C59.04 66.84 59.92 65.3733 59.92 63.56C59.92 62.2267 59.3867 61.1333 58.32 60.28C57.3067 59.3733 55.9733 58.6533 54.32 58.12C52.72 57.5867 50.5333 57 47.76 56.36C43.4933 55.3467 40 54.3333 37.28 53.32C34.56 52.3067 32.2133 50.68 30.24 48.44C28.32 46.2 27.36 43.2133 27.36 39.48C27.36 36.2267 28.24 33.2933 30 30.68C31.76 28.0133 34.4 25.9067 37.92 24.36C41.4933 22.8133 45.84 22.04 50.96 22.04C54.5333 22.04 58.0267 22.4667 61.44 23.32C64.8533 24.1733 67.84 25.4 70.4 27L66.4 36.84C61.2267 33.9067 56.0533 32.44 50.88 32.44C47.2533 32.44 44.56 33.0267 42.8 34.2C41.0933 35.3733 40.24 36.92 40.24 38.84C40.24 40.76 41.2267 42.2 43.2 43.16C45.2267 44.0667 48.2933 44.9733 52.4 45.88C56.6667 46.8933 60.16 47.9067 62.88 48.92C65.6 49.9333 67.92 51.5333 69.84 53.72C71.8133 55.9067 72.8 58.8667 72.8 62.6C72.8 65.8 71.8933 68.7333 70.08 71.4C68.32 74.0133 65.6533 76.0933 62.08 77.64C58.5067 79.1867 54.16 79.96 49.04 79.96Z" fill="#14213D"/>
</g>
<defs>
<filter id="filter0_d_9_4" x="23.24" y="22.04" width="49.56" height="60.92" filterUnits="userSpaceOnUse" color-interpolation-filters="sRGB">
<feFlood flood-opacity="0" result="BackgroundImageFix"/>
<feColorMatrix in="SourceAlpha" type="matrix" values="0 0 0 0 0 0 0 0 0 0 0 0 0 0 0 0 0 0 127 0" result="hardAlpha"/>
<feOffset dx="-3" dy="3"/>
<feComposite in2="hardAlpha" operator="out"/>
<feColorMatrix type="matrix" values="0 0 0 0 1 0 0 0 0 1 0 0 0 0 1 0 0 0 1 0"/>
<feBlend mode="normal" in2="BackgroundImageFix" result="effect1_dropShadow_9_4"/>
<feBlend mode="normal" in="SourceGraphic" in2="effect1_dropShadow_9_4" result="shape"/>
</filter>
<linearGradient id="paint0_linear_9_4" x1="3.5" y1="-1.29223e-06" x2="100" y2="103" gradientUnits="userSpaceOnUse">
<stop stop-color="#FCA311"/>
<stop offset="1" stop-color="#FCE305"/>
</linearGradient>
</defs>
</svg>
