<svg width="37" height="44" viewBox="0 0 37 44" fill="none" xmlns="http://www.w3.org/2000/svg">
<g filter="url(#filter0_d_9_2)">
<path d="M19.528 40.672C16.4293 40.672 13.424 40.2613 10.512 39.44C7.63733 38.5813 5.32267 37.48 3.568 36.136L6.648 29.304C8.328 30.536 10.3253 31.5253 12.64 32.272C14.9547 33.0187 17.2693 33.392 19.584 33.392C22.16 33.392 24.064 33.0187 25.296 32.272C26.528 31.488 27.144 30.4613 27.144 29.192C27.144 28.2587 26.7707 27.4933 26.024 26.896C25.3147 26.2613 24.3813 25.7573 23.224 25.384C22.104 25.0107 20.5733 24.6 18.632 24.152C15.6453 23.4427 13.2 22.7333 11.296 22.024C9.392 21.3147 7.74933 20.176 6.368 18.608C5.024 17.04 4.352 14.9493 4.352 12.336C4.352 10.0587 4.968 8.00533 6.2 6.176C7.432 4.30933 9.28 2.83466 11.744 1.752C14.2453 0.669332 17.288 0.127999 20.872 0.127999C23.3733 0.127999 25.8187 0.426665 28.208 1.024C30.5973 1.62133 32.688 2.48 34.48 3.6L31.68 10.488C28.0587 8.43467 24.4373 7.408 20.816 7.408C18.2773 7.408 16.392 7.81867 15.16 8.64C13.9653 9.46133 13.368 10.544 13.368 11.888C13.368 13.232 14.0587 14.24 15.44 14.912C16.8587 15.5467 19.0053 16.1813 21.88 16.816C24.8667 17.5253 27.312 18.2347 29.216 18.944C31.12 19.6533 32.744 20.7733 34.088 22.304C35.4693 23.8347 36.16 25.9067 36.16 28.52C36.16 30.76 35.5253 32.8133 34.256 34.68C33.024 36.5093 31.1573 37.9653 28.656 39.048C26.1547 40.1307 23.112 40.672 19.528 40.672Z" fill="#14213D"/>
</g>
<defs>
<filter id="filter0_d_9_2" x="0.567993" y="0.127991" width="35.592" height="43.544" filterUnits="userSpaceOnUse" color-interpolation-filters="sRGB">
<feFlood flood-opacity="0" result="BackgroundImageFix"/>
<feColorMatrix in="SourceAlpha" type="matrix" values="0 0 0 0 0 0 0 0 0 0 0 0 0 0 0 0 0 0 127 0" result="hardAlpha"/>
<feOffset dx="-3" dy="3"/>
<feComposite in2="hardAlpha" operator="out"/>
<feColorMatrix type="matrix" values="0 0 0 0 1 0 0 0 0 1 0 0 0 0 1 0 0 0 1 0"/>
<feBlend mode="normal" in2="BackgroundImageFix" result="effect1_dropShadow_9_2"/>
<feBlend mode="normal" in="SourceGraphic" in2="effect1_dropShadow_9_2" result="shape"/>
</filter>
</defs>
</svg>
