<svg width="567" height="551" viewBox="0 0 567 551" fill="none" xmlns="http://www.w3.org/2000/svg">
<path d="M554.533 209.182L554.529 209.17L554.525 209.158C549.605 194.27 536.662 183.359 521.169 181.138C521.163 181.137 521.156 181.136 521.149 181.135L382.456 160.673L320.366 32.8904C320.363 32.8847 320.36 32.8791 320.358 32.8735C313.455 18.5435 298.911 9.5 283.005 9.5C267.184 9.5 252.65 18.5569 245.754 32.8695C245.751 32.8765 245.748 32.8834 245.744 32.8904L183.557 160.673L44.9914 181.133C44.9823 181.134 44.9732 181.136 44.9641 181.137C29.3821 183.357 16.4556 194.27 11.5678 209.18L11.5651 209.188L11.5625 209.196C6.66873 224.214 10.6429 240.545 21.7714 251.661L21.8024 251.691L21.8336 251.722L122.516 350.453L98.7473 492.102C98.7452 492.113 98.7431 492.125 98.7411 492.137C96.0262 507.73 102.522 523.546 115.369 532.759C128.196 541.959 145.157 543.12 159.139 535.741L159.159 535.73L159.179 535.719L283.007 469.607L406.933 535.721L406.939 535.724C420.849 543.134 437.818 541.949 450.63 532.768C463.648 523.51 469.958 507.671 467.376 492.177L467.374 492.167L443.594 350.453L544.257 251.721L544.29 251.689L544.323 251.657C555.42 240.559 559.463 224.231 554.533 209.182Z" fill="white" stroke="black" stroke-width="19"/>
</svg>
