<svg xmlns="http://www.w3.org/2000/svg" xmlns:xlink="http://www.w3.org/1999/xlink" width="25" height="24" fill="none" xmlns:v="https://vecta.io/nano"><g fill="#debb7e"><use xlink:href="#B"/><use xlink:href="#B" x="-10.38"/></g><path d="M17.69 3.5A3.36 3.36 0 0 1 21 6.21c.044-.219.066-.442.065-.665a3.36 3.36 0 0 0-3.357-3.489 3.36 3.36 0 0 0-3.357 3.489 3.31 3.31 0 0 0 .07.665 3.36 3.36 0 0 1 3.27-2.71zm-10.38 0a3.36 3.36 0 0 1 3.29 2.69 3.31 3.31 0 0 0 .07-.665 3.36 3.36 0 0 0-3.357-3.489 3.36 3.36 0 0 0-3.357 3.489A3.26 3.26 0 0 0 4 6.21 3.36 3.36 0 0 1 7.31 3.5z" fill="#f0d5a8"/><g stroke="#45413c" stroke-width=".5" stroke-linejoin="round"><use xlink:href="#C"/><use xlink:href="#C" x="-10.38"/></g><path opacity=".15" d="M5.48 22.585c0 .243.74.475 2.056.647s3.102.268 4.964.268 3.647-.096 4.964-.268 2.056-.404 2.056-.647-.74-.475-2.056-.647-3.102-.268-4.964-.268-3.647.096-4.964.268-2.056.404-2.056.647z" fill="#45413c"/><path d="M19.455 9.815v-.62c0-3.3-2.825-5.695-6.315-5.695h-1.28c-3.5 0-6.315 2.375-6.315 5.675v.615a5.36 5.36 0 0 0-1.895 4.095C3.65 16.695 6.055 19 9.025 19H16c2.97 0 5.375-2.28 5.375-5.09a5.36 5.36 0 0 0-1.92-4.095z" fill="#debb7e"/><path d="M19.455 9.815v-.62c0-3.3-2.825-5.695-6.315-5.695h-1.28c-3.5 0-6.315 2.375-6.315 5.675v.615a5.36 5.36 0 0 0-1.895 4.095 4.75 4.75 0 0 0 .1.965c.19-1.029.675-1.981 1.395-2.74.259-.268.403-.627.4-1 0-3.305 2.825-5.675 6.315-5.675h1.28c3.5 0 6.315 2.37 6.315 5.675-.003.373.141.732.4 1 .72.759 1.205 1.711 1.395 2.74a4.75 4.75 0 0 0 .1-.965 5.36 5.36 0 0 0-1.895-4.07z" fill="#f0d5a8"/><g stroke="#45413c" stroke-width=".5" stroke-linejoin="round"><path d="M19.455 9.815v-.62c0-3.3-2.825-5.695-6.315-5.695h-1.28c-3.5 0-6.315 2.375-6.315 5.675v.615a5.36 5.36 0 0 0-1.895 4.095C3.65 16.695 6.055 19 9.025 19H16c2.97 0 5.375-2.28 5.375-5.09a5.36 5.36 0 0 0-1.92-4.095h0z"/><path d="M10.06 18.975c0 .404.257.792.715 1.078s1.078.447 1.725.447 1.268-.161 1.725-.447.715-.674.715-1.078-.257-.792-.715-1.078-1.078-.447-1.725-.447-1.268.161-1.725.447-.715.674-.715 1.078z" fill="#f0d5a8"/></g><path d="M13.415 14.09h-1.83c-.809 0-1.586.321-2.158.893s-.895 1.348-.897 2.157a2.13 2.13 0 0 0 1.568 2.067 2.13 2.13 0 0 0 2.402-.982 2.13 2.13 0 0 0 2.402.982 2.13 2.13 0 0 0 1.568-2.067c-.001-.809-.324-1.585-.897-2.157s-1.349-.893-2.158-.893z" fill="#f7e5c6"/><path d="M11.585 15.73h1.83a3.05 3.05 0 0 1 2.91 2.17 2.12 2.12 0 0 0 .145-.76c-.001-.809-.324-1.585-.897-2.157s-1.349-.893-2.158-.893h-1.83c-.809 0-1.586.321-2.158.893s-.895 1.348-.897 2.157a2.12 2.12 0 0 0 .145.76 3.05 3.05 0 0 1 2.91-2.17z" fill="#fff5e3"/><g stroke="#45413c" stroke-width=".5" stroke-linejoin="round"><path d="M13.415 14.09h-1.83c-.809 0-1.586.321-2.158.893s-.895 1.348-.897 2.157a2.13 2.13 0 0 0 1.568 2.067 2.13 2.13 0 0 0 2.402-.982 2.13 2.13 0 0 0 2.402.982 2.13 2.13 0 0 0 1.568-2.067c-.001-.809-.324-1.585-.897-2.157s-1.349-.893-2.158-.893h0z"/><path d="M14.025 15c-.089.333-.285.628-.559.839s-.609.324-.954.324-.68-.114-.954-.324-.47-.505-.559-.839c0-.5.68-.915 1.525-.915s1.5.415 1.5.915z" fill="#87898c"/><path d="M15.555 12.26c0 .243.096.475.268.647s.404.268.647.268.475-.096.647-.268.268-.404.268-.647-.096-.475-.268-.647-.404-.268-.647-.268-.475.096-.647.268-.268.404-.268.647zm-7.94 0c0 .12.024.239.07.35s.113.212.198.297.186.152.297.198.23.07.35.07.239-.024.35-.07.212-.113.297-.198.152-.186.198-.297.07-.23.07-.35-.024-.239-.07-.35-.113-.212-.198-.297-.186-.152-.297-.198-.23-.07-.35-.07-.239.024-.35.07-.212.113-.297.198-.152.186-.198.297-.07.23-.07.35z" fill="#45413c"/></g><path d="M19.825 15.2c0 .275-.5.5-1.11.5s-1.11-.225-1.11-.5.5-.5 1.11-.5 1.11.225 1.11.5zm-12.43 0c0 .275-.5.5-1.11.5s-1.11-.225-1.11-.5.5-.5 1.11-.5 1.11.225 1.11.5z" fill="#fff5e3"/><defs ><path id="B" d="M14.33 5.545a3.36 3.36 0 0 0 3.36 3.36 3.36 3.36 0 0 0 3.36-3.36 3.36 3.36 0 0 0-3.36-3.36 3.36 3.36 0 0 0-3.36 3.36z"/><path id="C" d="M14.33 5.545a3.36 3.36 0 0 0 3.36 3.36 3.36 3.36 0 0 0 3.36-3.36 3.36 3.36 0 0 0-3.36-3.36 3.36 3.36 0 0 0-3.36 3.36h0z"/></defs></svg>