<svg width="176" height="176" viewBox="0 0 176 176" fill="none" xmlns="http://www.w3.org/2000/svg">
<g clip-path="url(#clip0_214_402)">
<path opacity="0.15" d="M46.2292 166.351C46.2292 167.802 50.6466 169.193 58.5094 170.218C66.3723 171.244 77.0366 171.82 88.1563 171.82C99.2761 171.82 109.94 171.244 117.803 170.218C125.666 169.193 130.083 167.802 130.083 166.351C130.083 164.901 125.666 163.51 117.803 162.484C109.94 161.459 99.2761 160.883 88.1563 160.883C77.0366 160.883 66.3723 161.459 58.5094 162.484C50.6466 163.51 46.2292 164.901 46.2292 166.351Z" fill="#45413C"/>
<path d="M53.3021 112.065C56.073 103.461 46.7761 87.6015 65.8073 80.6744C62.8178 98.3931 87.4636 103.461 81.849 121.143L53.3021 112.065Z" fill="#FF6242" stroke="#45413C" stroke-width="3.64583" stroke-linecap="round" stroke-linejoin="round"/>
<path d="M122.792 46.039C126.073 55.1171 125.016 60.4036 120.969 64.2681C102.448 52.6015 80.3542 44.2161 76.7813 18.6952C38.9375 47.8619 95.448 87.9661 68.1042 98.9036C54.5782 104.336 42.5834 91.6119 44.4063 77.3567C40.4526 81.061 37.2851 85.5235 35.0928 90.4781C32.9005 95.4326 31.7283 100.778 31.6459 106.195C31.6459 131.351 56.948 151.768 88.1563 151.768C159.615 151.768 153.781 56.9765 122.792 46.039Z" fill="#FF6242" stroke="#45413C" stroke-width="3.64583" stroke-linecap="round" stroke-linejoin="round"/>
<path d="M113.677 102.549C108.208 118.956 93.5521 125.482 80.5365 126.174C81.9571 129.429 84.2977 132.199 87.2706 134.142C90.2435 136.085 93.7193 137.117 97.2709 137.112C117.76 137.185 131.906 115.31 113.677 102.549Z" fill="#FFE500" stroke="#45413C" stroke-width="3.64583" stroke-linecap="round" stroke-linejoin="round"/>
</g>
<defs>
<clipPath id="clip0_214_402">
<rect width="175" height="175" fill="white" transform="translate(0.65625 0.466064)"/>
</clipPath>
</defs>
</svg>
