<svg xmlns="http://www.w3.org/2000/svg" xmlns:xlink="http://www.w3.org/1999/xlink" width="717.67" height="596.329" xmlns:v="https://vecta.io/nano"><style><![CDATA[.B{fill:#ffb6b6}.C{fill:#3f3d56}.D{fill:#e6e6e6}.E{fill:#2f2e41}]]></style><rect x="103.855" width="326" height="594" rx="58.728" class="C"/><path d="M424.355 58.732v476.54c-.034 29.384-23.846 53.196-53.23 53.23h-208.54c-29.384-.034-53.196-23.846-53.23-53.23V58.732c.034-29.384 23.846-53.196 53.23-53.23h27.27v9.42c.001 8.881 7.199 16.079 16.08 16.08h121.84c8.881-.001 16.079-7.199 16.08-16.08v-9.42h27.27c29.384.034 53.196 23.846 53.23 53.23z" fill="#fff"/><path d="M335.135 262.123c-12.089-5.45-25.565 6.887-16.598 18.431-30.297 27.597-75.284 37.308-114.449 25.764-.966 2.329-1.982 4.632-3.022 6.936-15.564 34.469-37.858 65.48-65.573 91.213 36.49-30.346 81.452-4.707 120.122 5.277a13.74 13.74 0 0 1 6.069 24.426 78.98 78.98 0 0 0-15.21-3.964 11.98 11.98 0 0 0-10.652 19.917c-40.503 19.422-90.891 12.262-125.647-15.632v-16.573c36.788-28.248 66.133-65.041 85.49-107.191 6.805-14.803 12.308-30.171 16.449-45.928 4.525-17.234 7.313-34.877 8.324-52.667-6.664-19.645-5.549-42.708 5.549-60.544 4.583 8.324 17.787 10.479 19.174-1.065l.793-13.947c49.768-3.84 41.271 65.846-19.62 76.746a280.22 280.22 0 0 1-8.67 52.989c-.421 1.734-.892 3.443-1.387 5.153 11.128-15.203 25.706-27.548 42.535-36.019 16.077-7.531 34.806-9.141 52.667-12.04 21.726-3.542 37.109 21.28 23.658 38.72z" fill="#f2f2f2"/><path d="M102.355 120.5c-2.208-.003-3.997-1.792-4-4v-8a4 4 0 1 1 8 0v8c-.003 2.208-1.792 3.997-4 4zm0 41.021c-2.208-.003-3.997-1.792-4-4V135.5a4 4 0 1 1 8 0v22.021c-.003 2.208-1.792 3.997-4 4zm0 32.979c-2.208-.003-3.997-1.792-4-4v-22.021a4 4 0 1 1 8 0V190.5c-.003 2.208-1.792 3.997-4 4zm328-18c-2.208-.003-3.997-1.792-4-4v-53.733a4 4 0 1 1 8 0V172.5c-.003 2.208-1.792 3.997-4 4z" class="C"/><g fill="#fff"><path d="M275.447 18.346h-31a2.5 2.5 0 1 1 0-5h31a2.5 2.5 0 1 1 0 5z"/><circle cx="291.447" cy="15.846" r="2"/></g><g class="D"><path d="M198.721 150.53h-34.732c-10.01-.011-18.122-8.123-18.134-18.134V97.664c.011-10.01 8.123-18.122 18.134-18.134h34.732c10.01.011 18.122 8.123 18.134 18.134v34.732c-.011 10.01-8.123 18.123-18.134 18.134zm-34.732-69c-8.906.01-16.124 7.228-16.134 16.134v34.732c.01 8.906 7.228 16.124 16.134 16.134h34.732c8.906-.01 16.124-7.228 16.134-16.134V97.664c-.01-8.906-7.228-16.124-16.134-16.134zm120.232 69.5h-34.732c-10.01-.011-18.122-8.123-18.134-18.134V98.164c.011-10.01 8.123-18.122 18.134-18.134h34.732c10.01.011 18.122 8.123 18.134 18.134v34.732c-.011 10.01-8.123 18.123-18.134 18.134zm-34.732-69c-8.906.01-16.124 7.228-16.134 16.134v34.732c.01 8.906 7.228 16.124 16.134 16.134h34.732c8.906-.01 16.124-7.228 16.134-16.134V98.164c-.01-8.906-7.228-16.124-16.134-16.134zm120.232 69.5h-34.732c-10.01-.011-18.122-8.123-18.134-18.134V98.664c.011-10.01 8.123-18.122 18.134-18.134h34.732c10.01.011 18.122 8.123 18.134 18.134v34.732c-.011 10.01-8.123 18.123-18.134 18.134zm-34.732-69c-8.906.01-16.124 7.228-16.134 16.134v34.732c.01 8.906 7.228 16.124 16.134 16.134h34.732c8.906-.01 16.124-7.227 16.134-16.134V98.664c-.01-8.906-7.228-16.124-16.134-16.134z"/><use xlink:href="#B"/><use xlink:href="#B" x="85.5" y="0.5"/><use xlink:href="#C"/></g><use xlink:href="#D" fill="#fca311"/><g class="D"><use xlink:href="#D" x="85.5" y="0.5"/><use xlink:href="#D" x="171" y="1"/></g><circle cx="248.855" cy="447.03" r="5" fill="#ccc"/><g class="D"><circle cx="266.855" cy="447.03" r="5"/><circle cx="284.855" cy="447.03" r="5"/><path d="M386.441 561.03H147.536c-11.343-.013-20.534-9.204-20.547-20.547v-50.906c.013-11.343 9.205-20.534 20.547-20.547h238.905c11.343.013 20.534 9.204 20.547 20.547v50.906c-.013 11.343-9.205 20.534-20.547 20.547zm-238.905-90c-10.238.012-18.536 8.308-18.547 18.547v50.906c.012 10.238 8.309 18.535 18.547 18.547h238.905c10.238-.012 18.536-8.308 18.547-18.547v-50.906c-.012-10.238-8.309-18.535-18.547-18.547z"/></g><path d="M594.12 129.687c-4.145.643-7.025 4.469-6.496 8.63a7.43 7.43 0 0 0 .274 1.197L566.4 155.878l4.466 13.83 27.025-25.601c3.251-1.317 5.206-4.66 4.76-8.139a7.39 7.39 0 0 0-8.331-6.312q-.101.014-.201.03z" class="B"/><path d="M445.822 205.559h0c.287 7.047 6.14 12.579 13.191 12.471l40.589-.621 51.326-23.804s16.738-14.207 21.405-14.541 7.152 4.007 6.094.043-2.457-6.618 1.13-6.248 3.016-6.946 3.809-9.713-10.116-12.754-10.116-12.754-7.862.152-8.376 1.185 1.276 3.636-2.949 3.524-7.451.066-7.583 2.028.176 3.491-2.165 5.01-12.908 9.351-12.908 9.351l-83.611 20.925c-5.979 1.496-10.087 6.985-9.835 13.144z" class="C"/><path d="M467.555 574.794h11.038l5.252-42.574h-16.29v42.574z" class="B"/><path d="M463.953 567.234l17.634-1.053v7.555l16.765 11.579a4.72 4.72 0 0 1-2.682 8.603h-20.994l-3.619-7.473-1.413 7.473h-7.916z" class="E"/><path d="M485.989 302.03l6-37-42-10v38.331l36 8.669z" class="B"/><path d="M433.489 337.53l20.534 133.477s-1.208 58.011 8.129 71.267l2.337 14.256h21.067s-.388-8.756 1.773-13.878 5.16-1.728 2.16-6.425-3.321-4.177-2.16-7.937 1.838-174.236 1.838-174.236z" class="E"/><path d="M445.996 509.241l6.396 8.995 37.741-20.389-9.44-13.277-34.697 24.671z" class="B"/><path d="M450.07 501.924l11.076 13.762-6.157 4.378.279 20.373a4.72 4.72 0 0 1-8.565 2.8l-12.166-17.11 3.994-7.28-6.909 3.179-4.587-6.451zm-2.081-230.894l-.286 15.486s-37.958 33.31-9.336 73.912c0 0 3.606 11.689 8.614 11.146s7.558 2.25 6.283 4.853 47.386 34.272 47.386 34.272l-39.661 86.331 5 16s-2.649 6.189 1.426 3.844 2.07-2.664 6.572-3.504 10.051-2.769 9.777-3.805 55.985-88.081 55.985-88.081 13.48-14.34 3.61-31.147c-1.37-.307-1.406 0-1.406 0l-48.247-54.943-5.717-36.364z" class="E"/><path d="M491.394 171.755l-24.304-11.39-7.276 12.661s-19.542 27.887-19.825 48.005 3.185 26.101 3.185 26.101-8.426 6.299-4.213 10.15 13.54 5.512 6.376 7.181-5.348 18.569 2.652 21.569 50.964 2.974 50.964 2.974a7.65 7.65 0 0 1 1.89-7.534c3.331-3.339 6.331-.943 3.331-6.141s-8-2.198-4-9.198 3.999-9.092 3.999-9.092 9.742-16.801-4.128-32.355-.119-1.066-.119-1.066l-9.918-33.236z" class="C"/><g fill="#fca311"><use xlink:href="#D" x="391.134" y="-279.5"/><path d="M607.855 138.03h-34.732c-9.458-.011-17.123-7.675-17.134-17.134V86.164c.011-9.458 7.675-17.123 17.134-17.134h34.732c9.458.011 17.123 7.675 17.134 17.134v34.732c-.011 9.458-7.675 17.123-17.134 17.134z"/></g><path d="M513.864 158.507l.021-.002a4.26 4.26 0 0 0 3.726-4.729l-2.783-23.593a31.75 31.75 0 0 0-3.939-12.012 32.26 32.26 0 0 0-18.829-14.936c-4.112-1.217-8.428-1.589-12.688-1.093-17.427 2.028-22.907 6.92-27.882 35.225s2.787 23.629 2.787 23.629c.066.569.247 1.118.53 1.616.555.97 1.463 1.689 2.535 2.005a4.28 4.28 0 0 0 1.696.146c21.289.811 42.818 1.853 54.828-6.257z" class="E"/><path d="M467.93 127.51a23.42 23.42 0 0 0 30.844 30.328c5.704-2.393 10.212-6.969 12.52-12.708a23.42 23.42 0 0 0-30.824-30.322c-5.71 2.387-10.226 6.962-12.539 12.702z" class="B"/><g class="E"><path d="M522.538 131.22c-.391-3.343-1.451-6.574-3.115-9.5-1.873-7.628-5.589-14.105-14.89-11.809-3.231-.955-6.622-1.25-9.97-.869l-4.725.533q-.08.009-.159.018c-13.751 1.631-23.576 14.099-21.945 27.85l.056.473 9.994-1.138 2.284-9.918 1.806 9.454 5.162-.586 1.151-5.004.912 4.767c8.922 5.005 20.38 2.915 33.491-3.798z"/><path d="M495.921 159.869a4.19 4.19 0 0 1 .094 2.305c-.092.39-.238.764-.434 1.113-.168.298-.37.574-.603.824a4.25 4.25 0 0 1-2.625 1.32q-.094.01-.188.017-.094.007-.189.009-.096.003-.191.001-.095-.002-.192-.008l-3.622-.226-6.114-9.857 1.127 9.557-16.462-1.001-4.784-40.554 27.039-3.058-.577.855c-1.91 2.865-2.993 6.202-3.13 9.643a30.51 30.51 0 0 0 1.41 10.283c1.04 3.364 2.402 6.621 4.065 9.726 1.458 2.752 3.074 5.417 4.839 7.984a4.28 4.28 0 0 1 .536 1.068z"/></g><path d="M559.568 197.308c-3.902 1.539-5.87 5.905-4.438 9.848a7.43 7.43 0 0 0 .531 1.108l-17.37 20.693 7.399 12.508 20.731-30.92c2.881-2 4.053-5.691 2.853-8.986a7.39 7.39 0 0 0-9.515-4.325q-.095.036-.189.074z" class="B"/><path d="M468.593 193.157h0c-3.541 1.6-6.211 4.661-7.315 8.386s-.534 7.746 1.563 11.017l16.647 25.97 39 35s32-23 33-31-2-10 1-8 6 1 5 0-.608-1.063.196-2.531 3.804-8.469 3.804-8.469l-10.626-10.5s-11.374 5.5-12.374 8.5 3 2-1 3-9.343-3.535-5.172 1.232 3.828 6.839 0 6.803-10.828 9.965-10.828 9.965l-37.004-45.612c-3.828-4.718-10.355-6.263-15.891-3.761z" class="C"/><path d="M587.752 570.04c1.496.054 2.866-.832 3.431-2.218s.202-2.978-.907-3.983l-.253-.968c1.394-3.644 4.86-6.077 8.761-6.151s7.456 2.226 8.988 5.814c4.318 9.846 9.881 20.028 7.267 30.943 17.594-38.227 11.037-85.508-15.81-117.8-7.374-3.971-13.387-11.093-15.014-19.414 3.642 1.195 8.14-1.8 5.374-5.598l-3.602-4.339c13.65-14.818 30.301 8.108 15.31 28.074 5.025 6.178 9.39 12.865 13.024 19.951-.896-7.552.015-15.21 2.656-22.342 2.682-6.649 7.775-12.276 12.252-18.044 5.443-7.029 16.813-3.918 17.639 4.928-5.069 1.72-5.659 9.071.166 10.02-1.367 16.483-11.982 31.721-26.732 39.085a114.71 114.71 0 0 1 6.725 47.885c2.435-19.011 22.771-23.812 36.944-31.494a5.55 5.55 0 0 1 8.516 5.54 32.05 32.05 0 0 0-5.589 3.017c-1.688 1.159-2.466 3.254-1.942 5.233s2.236 3.416 4.276 3.588c-7.011 17.839-25.462 29.949-44.529 30.064A117.93 117.93 0 0 1 617 595.03l-28.298.269c-.104-.313-.199-.637-.293-.951 2.621.14 5.249-.042 7.826-.541-7.008-8.139-12.407-12.274-8.483-23.767z" fill="#f2f2f2"/><path d="M0 595.139c-.001.316.124.619.348.843s.527.348.843.347h715.29a1.19 1.19 0 1 0 0-2.38H1.19c-.316-.001-.619.124-.842.348s-.348.527-.348.842z" fill="#ccc"/><g class="D"><path d="M177.941 29.073h-27a5 5 0 1 1 0-10h27a5 5 0 1 1 0 10z"/><circle cx="354.941" cy="24.073" r="4.5"/><circle cx="368.941" cy="24.073" r="4.5"/><circle cx="382.941" cy="24.073" r="4.5"/></g><g fill="#ccc"><circle cx="209.441" cy="184.573" r="12"/><circle cx="296.441" cy="488.573" r="12"/></g><g class="D"><use xlink:href="#C" x="-171" y="98"/><use xlink:href="#C" x="-85.5" y="98.5"/><use xlink:href="#C" y="99"/></g><circle cx="296.441" cy="285.573" r="12" fill="#ccc"/><defs ><path id="B" d="M198.721 249.53h-34.732c-10.01-.011-18.122-8.123-18.134-18.134v-34.732c.011-10.01 8.123-18.122 18.134-18.134h34.732c10.01.011 18.122 8.123 18.134 18.134v34.732c-.011 10.01-8.123 18.123-18.134 18.134zm-34.732-69c-8.906.01-16.124 7.228-16.134 16.134v34.732c.01 8.906 7.228 16.124 16.134 16.134h34.732c8.906-.01 16.124-7.228 16.134-16.134v-34.732c-.01-8.906-7.228-16.124-16.134-16.134z"/><path id="C" d="M369.721 250.53h-34.732c-10.01-.011-18.122-8.123-18.134-18.134v-34.732c.011-10.01 8.123-18.122 18.134-18.134h34.732c10.01.011 18.122 8.123 18.134 18.134v34.732c-.011 10.01-8.123 18.123-18.134 18.134zm-34.732-69c-8.906.01-16.124 7.228-16.134 16.134v34.732c.01 8.906 7.228 16.124 16.134 16.134h34.732c8.906-.01 16.124-7.227 16.134-16.134v-34.732c-.01-8.906-7.228-16.124-16.134-16.134z"/><path id="D" d="M198.721 549.53h-34.732c-9.458-.011-17.123-7.675-17.134-17.134v-34.732c.011-9.458 7.675-17.123 17.134-17.134h34.732c9.458.011 17.123 7.675 17.134 17.134v34.732c-.011 9.458-7.675 17.123-17.134 17.134z"/></defs></svg>