<svg xmlns="http://www.w3.org/2000/svg" width="25" height="24" fill="none" xmlns:v="https://vecta.io/nano"><style><![CDATA[.B{stroke:#45413c}.C{stroke-width:.5}.D{stroke-linejoin:round}.E{fill:#ffcebf}.F{stroke-linecap:round}]]></style><path opacity=".15" d="M7.452 22.75c0 .199.579.39 1.611.53s2.43.22 3.889.22 2.858-.079 3.889-.22 1.611-.331 1.611-.53-.579-.39-1.611-.53-2.43-.22-3.889-.22-2.858.079-3.889.22-1.611.331-1.611.53z" fill="#45413c"/><path d="M14.897 2.92l1-1.535c.024-.033.04-.072.045-.113s0-.082-.015-.121-.039-.072-.071-.099a.24.24 0 0 0-.11-.053L14.632.71a.25.25 0 0 0-.315.255l.135 1.835a.25.25 0 0 0 .445.12zm3.285 1.43l1.43-1.135a.25.25 0 0 0 .103-.203.25.25 0 0 0-.103-.203l-.98-.63a.25.25 0 0 0-.38.145l-.47 1.765a.25.25 0 0 0 .4.26zm-7.175-1.43l-1-1.535c-.024-.033-.04-.072-.045-.113a.25.25 0 0 1 .015-.121c.015-.039.039-.072.071-.099a.24.24 0 0 1 .11-.053l1.115-.29a.25.25 0 0 1 .315.255L11.452 2.8a.25.25 0 0 1-.445.12zM7.722 4.35l-1.43-1.135a.25.25 0 0 1-.103-.203.25.25 0 0 1 .103-.203l.96-.63a.25.25 0 0 1 .38.145l.47 1.765a.25.25 0 0 1-.38.26z" fill="#00dfeb" class="B C D"/><path d="M8.157 21.605H4.282a.5.5 0 0 1-.5-.5V17.21h4.855v3.915a.5.5 0 0 1-.48.48z" class="E"/><path d="M3.797 18.935a6.18 6.18 0 0 0 2.42.5 6.22 6.22 0 0 0 2.42-.5V17.23h-4.84v1.705z" fill="#ffb59e"/><path d="M8.157 21.605H4.282a.5.5 0 0 1-.5-.5V17.21h4.855v3.915a.5.5 0 0 1-.48.48z" class="B C D"/><path d="M10.247 13.255l-.685.645V8.365c.003-.118-.017-.235-.058-.344s-.105-.21-.186-.296-.178-.154-.285-.202-.223-.074-.341-.078a.87.87 0 0 0-.87.87V7.53c.007-.127-.011-.255-.054-.375s-.11-.23-.197-.324-.192-.168-.308-.22-.243-.079-.37-.081-.252.022-.369.07-.223.12-.311.211-.157.199-.201.317-.065.245-.058.371v-.055c.002-.115-.019-.229-.062-.335s-.107-.203-.188-.284-.178-.145-.284-.188-.221-.064-.335-.062a.87.87 0 0 0-.87.87V8.91c.02-.111.015-.226-.015-.335s-.083-.211-.157-.297-.165-.155-.268-.201-.216-.069-.329-.067-.224.03-.326.08-.19.123-.26.212-.119.192-.145.303-.026.225-.001.335v6.235a3.24 3.24 0 0 0 3.22 3.255c.707.001 1.407-.148 2.053-.436s1.224-.708 1.697-1.234l2.595-2.815a.47.47 0 0 0 0-.66 1.44 1.44 0 0 0-2.03-.03z" class="E"/><g fill="#ffdcd1"><path d="M5.097 7.585c.114 0 .226.023.331.066s.2.108.279.189.142.177.184.282.063.218.061.332V8.5c0-.245.097-.481.271-.654s.409-.271.654-.271c.128.002.254.029.37.081s.222.127.308.22.154.204.197.324.062.248.054.375v.775a.87.87 0 0 1 .885-.85.89.89 0 0 1 .625.277.89.89 0 0 1 .245.638v-1.05c.003-.118-.017-.235-.058-.344s-.105-.21-.186-.296-.178-.154-.285-.202-.223-.074-.341-.078a.87.87 0 0 0-.87.87V7.53c.007-.127-.011-.255-.054-.375s-.11-.23-.197-.324-.192-.168-.308-.22-.243-.079-.37-.081-.252.022-.369.07-.223.12-.311.211-.157.199-.201.317-.065.245-.058.371v-.055c.002-.115-.019-.229-.062-.335s-.107-.203-.188-.284-.178-.145-.284-.188-.221-.064-.335-.062a.87.87 0 0 0-.87.87v1.03a.87.87 0 0 1 .253-.634.87.87 0 0 1 .632-.256z"/><path d="M3.452 9.16a.76.76 0 0 1 .765.76V8.89a.76.76 0 0 0-.015-.335c-.03-.109-.083-.211-.157-.297s-.165-.155-.268-.201-.216-.069-.329-.067a.77.77 0 0 0-.326.08c-.102.05-.19.123-.26.212s-.119.192-.145.303-.026.225-.001.335v1.03a.77.77 0 0 1 .204-.547.76.76 0 0 1 .531-.243zm2.765 5.465a23.49 23.49 0 0 1 3.53-.065c.845-.5 1.82-.89 2.375-.455l.145-.16a.47.47 0 0 0 0-.66 1.44 1.44 0 0 0-2-.03l-.705.645H7.797c-.3-.001-.597.064-.87.189s-.515.308-.71.536z"/></g><g class="B C D"><path d="M4.227 8.89v2.985m1.74-4.395v4.395m1.855-3.56v3.56m1.74 2.025H7.797c-.3-.001-.597.064-.87.189s-.515.308-.71.536" class="F"/><path d="M10.247 13.255l-.685.645V8.365c.003-.118-.017-.235-.058-.344s-.105-.21-.186-.296-.178-.154-.285-.202-.223-.074-.341-.078a.87.87 0 0 0-.87.87V7.53c.007-.127-.011-.255-.054-.375s-.11-.23-.197-.324-.192-.168-.308-.22-.243-.079-.37-.081-.252.022-.369.07-.223.12-.311.211-.157.199-.201.317-.065.245-.058.371v-.055c.002-.115-.019-.229-.062-.335s-.107-.203-.188-.284-.178-.145-.284-.188-.221-.064-.335-.062a.87.87 0 0 0-.87.87V8.91c.02-.111.015-.226-.015-.335s-.083-.211-.157-.297-.165-.155-.268-.201-.216-.069-.329-.067-.224.03-.326.08-.19.123-.26.212-.119.192-.145.303-.026.225-.001.335v6.235a3.24 3.24 0 0 0 3.22 3.255c.707.001 1.407-.148 2.053-.436s1.224-.708 1.697-1.234l2.595-2.815a.47.47 0 0 0 0-.66h0a1.44 1.44 0 0 0-2.03-.03h0z"/></g><path d="M17.267 17.23h4.835v3.895a.5.5 0 0 1-.5.5h-3.855a.5.5 0 0 1-.5-.5V17.23h.02z" class="E"/><path d="M22.107 18.935a6.34 6.34 0 0 1-4.84 0V17.23h4.84v1.705z" fill="#ffb59e"/><path d="M17.267 17.23h4.835v3.895a.5.5 0 0 1-.5.5h-3.855a.5.5 0 0 1-.5-.5V17.23h.02z" class="B C D"/><path d="M15.657 13.255l.685.645V8.365c-.003-.118.017-.235.058-.344s.105-.21.186-.296.178-.154.285-.202.223-.074.341-.078a.87.87 0 0 1 .87.87V7.53c-.007-.127.011-.255.054-.375s.11-.23.197-.324.192-.168.309-.22.242-.079.37-.081.252.022.369.07.223.12.311.211.157.199.201.317.064.245.058.371v-.055c-.002-.115.019-.229.062-.335s.107-.203.188-.284.178-.145.284-.188.221-.064.335-.062a.87.87 0 0 1 .87.87V8.91c-.02-.111-.015-.226.015-.335s.083-.211.157-.297.165-.155.268-.201.215-.069.329-.067.224.03.326.08.19.123.26.212.119.192.145.303.026.225.001.335v6.235a3.24 3.24 0 0 1-3.22 3.255c-.707.001-1.407-.148-2.053-.436s-1.224-.708-1.697-1.234l-2.595-2.815a.47.47 0 0 1 0-.66 1.44 1.44 0 0 1 2.03-.03z" class="E"/><g fill="#ffdcd1"><path d="M20.807 7.585c-.113 0-.226.023-.331.066s-.2.108-.279.189-.142.177-.184.282-.063.218-.061.332V8.5c0-.245-.097-.481-.271-.654s-.409-.271-.654-.271c-.128.002-.253.029-.37.081s-.222.127-.309.22-.154.204-.197.324-.062.248-.054.375v.775a.87.87 0 0 0-.885-.85.89.89 0 0 0-.625.277.89.89 0 0 0-.245.638v-1.05c-.003-.118.017-.235.058-.344s.105-.21.186-.296.178-.154.285-.202.223-.074.341-.078a.87.87 0 0 1 .87.87V7.53c-.007-.127.011-.255.054-.375s.11-.23.197-.324.192-.168.309-.22.242-.079.37-.081.252.022.369.07.223.12.311.211.157.199.201.317.064.245.058.371v-.055c-.002-.115.019-.229.062-.335s.107-.203.188-.284.178-.145.284-.188.221-.064.335-.062a.87.87 0 0 1 .87.87v1.03a.87.87 0 0 0-.253-.634.87.87 0 0 0-.632-.256z"/><path d="M22.452 9.16a.76.76 0 0 0-.765.76V8.89a.76.76 0 0 1 .015-.335c.03-.109.083-.211.157-.297s.165-.155.268-.201.215-.069.329-.067a.77.77 0 0 1 .326.08c.102.05.19.123.26.212s.119.192.145.303.026.225.001.335v1.03a.77.77 0 0 0-.204-.547.76.76 0 0 0-.53-.243zm-2.765 5.465a23.49 23.49 0 0 0-3.53-.065c-.845-.5-1.82-.89-2.375-.455l-.145-.16a.47.47 0 0 1 0-.66 1.44 1.44 0 0 1 2-.03l.685.645h1.765a2.07 2.07 0 0 1 .88.185 2.09 2.09 0 0 1 .72.54z"/></g><g class="B C D"><path d="M21.677 8.89v2.985m-1.74-4.395v4.395m-1.855-3.56v3.56m-1.74 2.025h1.765c.3-.001.597.064.87.189s.515.308.71.536" class="F"/><path d="M15.657 13.255l.685.645V8.365c-.003-.118.017-.235.058-.344s.105-.21.186-.296.178-.154.285-.202.223-.074.341-.078a.87.87 0 0 1 .87.87V7.53c-.007-.127.011-.255.054-.375s.11-.23.197-.324.192-.168.309-.22.242-.079.37-.081.252.022.369.07.223.12.311.211.157.199.201.317.064.245.058.371v-.055c-.002-.115.019-.229.062-.335s.107-.203.188-.284.178-.145.284-.188.221-.064.335-.062a.87.87 0 0 1 .87.87V8.91c-.02-.111-.015-.226.015-.335s.083-.211.157-.297.165-.155.268-.201.215-.069.329-.067.224.03.326.08.19.123.26.212.119.192.145.303.026.225.001.335v6.235a3.24 3.24 0 0 1-3.22 3.255c-.707.001-1.407-.148-2.053-.436s-1.224-.708-1.697-1.234l-2.595-2.815a.47.47 0 0 1 0-.66h0a1.44 1.44 0 0 1 2.03-.03h0z"/></g></svg>