<svg width="25" height="24" viewBox="0 0 25 24" fill="none" xmlns="http://www.w3.org/2000/svg">
<path opacity="0.15" d="M7.4516 22.75C7.4516 22.9489 8.03106 23.1397 9.06251 23.2803C10.094 23.421 11.4929 23.5 12.9516 23.5C14.4103 23.5 15.8092 23.421 16.8407 23.2803C17.8721 23.1397 18.4516 22.9489 18.4516 22.75C18.4516 22.5511 17.8721 22.3603 16.8407 22.2197C15.8092 22.079 14.4103 22 12.9516 22C11.4929 22 10.094 22.079 9.06251 22.2197C8.03106 22.3603 7.4516 22.5511 7.4516 22.75Z" fill="#45413C"/>
<path d="M14.8966 2.91999L15.8966 1.38499C15.9209 1.35176 15.9365 1.31293 15.9418 1.27209C15.9472 1.23126 15.9421 1.18973 15.9272 1.15136C15.9122 1.11299 15.8878 1.079 15.8563 1.05254C15.8247 1.02609 15.787 1.00801 15.7466 0.999993L14.6316 0.709993C14.5934 0.699647 14.5533 0.698512 14.5146 0.706681C14.4759 0.71485 14.4397 0.73209 14.4089 0.756983C14.3782 0.781876 14.3538 0.813712 14.3377 0.849873C14.3217 0.886035 14.3144 0.925489 14.3166 0.964993L14.4516 2.79999C14.4582 2.84876 14.4791 2.89449 14.5116 2.93146C14.544 2.96843 14.5867 2.99498 14.6342 3.00779C14.6818 3.02061 14.732 3.01911 14.7787 3.00349C14.8253 2.98787 14.8664 2.95883 14.8966 2.91999Z" fill="#00DFEB" stroke="#45413C" stroke-width="0.5" stroke-linecap="round" stroke-linejoin="round"/>
<path d="M18.1816 4.34998L19.6116 3.21498C19.6436 3.1918 19.6697 3.16137 19.6877 3.12617C19.7056 3.09097 19.715 3.05201 19.715 3.01248C19.715 2.97296 19.7056 2.934 19.6877 2.8988C19.6697 2.8636 19.6436 2.83316 19.6116 2.80998L18.6316 2.17998C18.5985 2.158 18.5606 2.14425 18.521 2.13986C18.4815 2.13547 18.4415 2.14058 18.4043 2.15476C18.3672 2.16894 18.3339 2.19178 18.3074 2.22139C18.2808 2.25099 18.2617 2.28651 18.2516 2.32498L17.7816 4.08998C17.7673 4.14125 17.7697 4.19575 17.7885 4.24555C17.8073 4.29534 17.8415 4.33784 17.8862 4.36685C17.9308 4.39586 17.9835 4.40987 18.0366 4.40683C18.0898 4.4038 18.1406 4.38388 18.1816 4.34998Z" fill="#00DFEB" stroke="#45413C" stroke-width="0.5" stroke-linecap="round" stroke-linejoin="round"/>
<path d="M11.0066 2.91999L10.0066 1.38499C9.98229 1.35176 9.96674 1.31293 9.96139 1.27209C9.95605 1.23126 9.96108 1.18973 9.97603 1.15136C9.99099 1.11299 10.0154 1.079 10.0469 1.05254C10.0785 1.02609 10.1162 1.00801 10.1566 0.999993L11.2716 0.709993C11.3098 0.699647 11.3499 0.698512 11.3886 0.706681C11.4273 0.71485 11.4635 0.73209 11.4943 0.756983C11.525 0.781876 11.5494 0.813712 11.5655 0.849873C11.5815 0.886035 11.5888 0.925489 11.5866 0.964993L11.4516 2.79999C11.445 2.84876 11.4241 2.89449 11.3917 2.93146C11.3592 2.96843 11.3165 2.99498 11.269 3.00779C11.2214 3.02061 11.1712 3.01911 11.1245 3.00349C11.0779 2.98787 11.0368 2.95883 11.0066 2.91999Z" fill="#00DFEB" stroke="#45413C" stroke-width="0.5" stroke-linecap="round" stroke-linejoin="round"/>
<path d="M7.72159 4.34998L6.29159 3.21498C6.25958 3.1918 6.23352 3.16137 6.21555 3.12617C6.19757 3.09097 6.1882 3.05201 6.1882 3.01248C6.1882 2.97296 6.19757 2.934 6.21555 2.8988C6.23352 2.8636 6.25958 2.83316 6.29159 2.80998L7.25159 2.17998C7.28474 2.158 7.32266 2.14425 7.36219 2.13986C7.40172 2.13547 7.44172 2.14058 7.47888 2.15476C7.51604 2.16894 7.54928 2.19178 7.57584 2.22139C7.6024 2.25099 7.62152 2.28651 7.63159 2.32498L8.10159 4.08998C8.11133 4.13812 8.10667 4.18806 8.0882 4.23357C8.06973 4.27908 8.03826 4.31813 7.99773 4.34587C7.95719 4.3736 7.90939 4.38878 7.86028 4.38951C7.81117 4.39024 7.76294 4.3765 7.72159 4.34998Z" fill="#00DFEB" stroke="#45413C" stroke-width="0.5" stroke-linecap="round" stroke-linejoin="round"/>
<path d="M8.1566 21.605H4.2816C4.14899 21.605 4.02181 21.5523 3.92804 21.4585C3.83428 21.3648 3.7816 21.2376 3.7816 21.105L3.7816 17.21H8.6366V21.125C8.63166 21.2507 8.5795 21.3699 8.49054 21.4589C8.40157 21.5479 8.28232 21.6 8.1566 21.605Z" fill="#FFCEBF"/>
<path d="M3.7966 18.935C4.56138 19.2629 5.3845 19.4329 6.2166 19.435C7.04859 19.4318 7.87149 19.2618 8.6366 18.935V17.23H3.7966V18.935Z" fill="#FFB59E"/>
<path d="M8.1566 21.605H4.2816C4.14899 21.605 4.02181 21.5523 3.92804 21.4585C3.83428 21.3648 3.7816 21.2376 3.7816 21.105L3.7816 17.21H8.6366V21.125C8.63166 21.2507 8.5795 21.3699 8.49054 21.4589C8.40157 21.5479 8.28232 21.6 8.1566 21.605Z" stroke="#45413C" stroke-width="0.5" stroke-linecap="round" stroke-linejoin="round"/>
<path d="M10.2466 13.255L9.5616 13.9V8.36499C9.56493 8.24744 9.54507 8.13039 9.50314 8.02053C9.46121 7.91067 9.39804 7.81014 9.31725 7.7247C9.23645 7.63926 9.13961 7.57058 9.03226 7.52259C8.92491 7.47459 8.80915 7.44822 8.6916 7.44499C8.46086 7.44499 8.23958 7.53665 8.07642 7.6998C7.91326 7.86296 7.8216 8.08425 7.8216 8.31499V7.52999C7.82904 7.40259 7.8106 7.27501 7.7674 7.15494C7.72419 7.03486 7.65711 6.92478 7.57021 6.83133C7.4833 6.73789 7.37837 6.66301 7.26174 6.61122C7.14511 6.55943 7.0192 6.53179 6.8916 6.52999C6.76499 6.52778 6.63928 6.5516 6.52225 6.59996C6.40521 6.64832 6.29936 6.72019 6.21124 6.81113C6.12311 6.90206 6.0546 7.01012 6.00994 7.12861C5.96528 7.24711 5.94542 7.37351 5.9516 7.49999V7.44499C5.95364 7.33018 5.93252 7.21613 5.88952 7.10966C5.84652 7.00319 5.78251 6.90647 5.70131 6.82528C5.62012 6.74408 5.5234 6.68007 5.41693 6.63707C5.31046 6.59407 5.19641 6.57295 5.0816 6.57499C4.85086 6.57499 4.62958 6.66665 4.46642 6.8298C4.30326 6.99296 4.2116 7.21425 4.2116 7.44499V8.90999C4.23157 8.79858 4.22657 8.68413 4.19696 8.57489C4.16736 8.46565 4.11388 8.36434 4.04038 8.27827C3.96689 8.1922 3.87522 8.1235 3.77197 8.07714C3.66872 8.03078 3.55646 8.00791 3.44331 8.01017C3.33015 8.01243 3.2189 8.03978 3.11759 8.09023C3.01627 8.14068 2.92742 8.21299 2.85743 8.30193C2.78743 8.39087 2.73805 8.49424 2.71283 8.60458C2.68762 8.71491 2.6872 8.82947 2.7116 8.93999V15.175C2.70761 16.0334 3.04446 16.8584 3.64819 17.4687C4.25192 18.0789 5.07317 18.4247 5.9316 18.43C6.6389 18.4306 7.3384 18.2823 7.98452 17.9945C8.63065 17.7068 9.2089 17.2861 9.6816 16.76L12.2766 13.945C12.3633 13.857 12.4119 13.7385 12.4119 13.615C12.4119 13.4915 12.3633 13.3729 12.2766 13.285C12.0108 13.0129 11.6481 12.857 11.2678 12.8514C10.8874 12.8458 10.5203 12.9909 10.2466 13.255Z" fill="#FFCEBF"/>
<path d="M5.0966 7.58499C5.21015 7.58497 5.32257 7.60757 5.42729 7.65147C5.53202 7.69538 5.62695 7.7597 5.70654 7.84069C5.78613 7.92168 5.8488 8.01771 5.89087 8.12318C5.93295 8.22865 5.95359 8.34145 5.9516 8.45499V8.49999C5.9516 8.25466 6.04905 8.01938 6.22252 7.84591C6.39599 7.67244 6.63127 7.57499 6.8766 7.57499C7.0042 7.57679 7.13011 7.60443 7.24674 7.65622C7.36337 7.70801 7.4683 7.78289 7.5552 7.87633C7.64211 7.96978 7.70919 8.07986 7.75239 8.19994C7.7956 8.32001 7.81404 8.44759 7.8066 8.57499V9.34999C7.81185 9.12011 7.90789 8.90166 8.07372 8.74239C8.23955 8.58311 8.4617 8.49596 8.6916 8.49999C8.80891 8.50258 8.92456 8.52834 9.03188 8.5758C9.1392 8.62325 9.23608 8.69146 9.31694 8.7765C9.3978 8.86155 9.46104 8.96174 9.50303 9.07131C9.54502 9.18089 9.56492 9.29769 9.5616 9.41499V8.36499C9.56493 8.24744 9.54506 8.13039 9.50313 8.02053C9.4612 7.91067 9.39804 7.81014 9.31724 7.7247C9.23645 7.63926 9.1396 7.57058 9.03225 7.52259C8.9249 7.47459 8.80914 7.44822 8.6916 7.44499C8.46086 7.44499 8.23957 7.53665 8.07641 7.6998C7.91326 7.86296 7.8216 8.08425 7.8216 8.31499V7.52999C7.82904 7.40259 7.8106 7.27501 7.76739 7.15494C7.72419 7.03486 7.65711 6.92478 7.5702 6.83133C7.4833 6.73789 7.37837 6.66301 7.26174 6.61122C7.14511 6.55943 7.0192 6.53179 6.8916 6.52999C6.76499 6.52778 6.63927 6.5516 6.52224 6.59996C6.40521 6.64832 6.29935 6.72019 6.21123 6.81113C6.12311 6.90206 6.05459 7.01012 6.00993 7.12861C5.96527 7.24711 5.94542 7.37351 5.9516 7.49999V7.44499C5.95363 7.33018 5.93252 7.21613 5.88951 7.10966C5.84651 7.00319 5.7825 6.90647 5.70131 6.82528C5.62011 6.74408 5.52339 6.68007 5.41692 6.63707C5.31045 6.59407 5.19641 6.57295 5.0816 6.57499C4.85086 6.57499 4.62957 6.66665 4.46641 6.8298C4.30326 6.99296 4.2116 7.21425 4.2116 7.44499V8.47499C4.20888 8.35779 4.22988 8.24126 4.27334 8.13238C4.31679 8.0235 4.38179 7.92453 4.46445 7.84141C4.54711 7.75828 4.64571 7.69272 4.75434 7.64865C4.86297 7.60459 4.97939 7.58293 5.0966 7.58499Z" fill="#FFDCD1"/>
<path d="M3.45161 9.15999C3.55183 9.15933 3.6512 9.1785 3.74398 9.2164C3.83677 9.2543 3.92114 9.31018 3.99224 9.38081C4.06335 9.45145 4.11978 9.53546 4.15828 9.62799C4.19679 9.72053 4.21661 9.81976 4.21661 9.91999V8.88999C4.23658 8.77859 4.23158 8.66414 4.20197 8.5549C4.17236 8.44566 4.11888 8.34435 4.04539 8.25828C3.9719 8.1722 3.88022 8.10351 3.77697 8.05715C3.67372 8.01078 3.56147 7.98791 3.44831 7.99017C3.33515 7.99244 3.22391 8.01978 3.12259 8.07023C3.02128 8.12069 2.93242 8.19299 2.86243 8.28193C2.79244 8.37088 2.74305 8.47424 2.71784 8.58458C2.69262 8.69492 2.6922 8.80947 2.71661 8.91999V9.94999C2.70985 9.74791 2.78337 9.55137 2.9211 9.40333C3.05883 9.2553 3.24956 9.16781 3.45161 9.15999Z" fill="#FFDCD1"/>
<path d="M6.21661 14.625C7.38999 14.5148 8.56998 14.4931 9.74661 14.56C10.5916 14.06 11.5666 13.67 12.1216 14.105L12.2666 13.945C12.3533 13.857 12.402 13.7385 12.402 13.615C12.402 13.4915 12.3533 13.3729 12.2666 13.285C12.0021 13.0218 11.6457 12.8717 11.2727 12.8661C10.8996 12.8605 10.5389 12.9999 10.2666 13.255L9.56161 13.9H7.79661C7.49649 13.8994 7.19981 13.9639 6.92703 14.089C6.65425 14.2142 6.41187 14.3971 6.21661 14.625Z" fill="#FFDCD1"/>
<path d="M4.22659 8.88998V11.875" stroke="#45413C" stroke-width="0.5" stroke-linecap="round" stroke-linejoin="round"/>
<path d="M5.96661 7.47998V11.875" stroke="#45413C" stroke-width="0.5" stroke-linecap="round" stroke-linejoin="round"/>
<path d="M7.82159 8.315V11.875" stroke="#45413C" stroke-width="0.5" stroke-linecap="round" stroke-linejoin="round"/>
<path d="M9.56161 13.9H7.79661C7.49649 13.8994 7.19981 13.9639 6.92703 14.0891C6.65425 14.2142 6.41187 14.3971 6.21661 14.625" stroke="#45413C" stroke-width="0.5" stroke-linecap="round" stroke-linejoin="round"/>
<path d="M10.2466 13.255L9.5616 13.9V8.36499C9.56493 8.24744 9.54507 8.13039 9.50314 8.02053C9.46121 7.91067 9.39804 7.81014 9.31725 7.7247C9.23645 7.63926 9.13961 7.57058 9.03226 7.52259C8.92491 7.47459 8.80915 7.44822 8.6916 7.44499C8.46086 7.44499 8.23958 7.53665 8.07642 7.6998C7.91326 7.86296 7.8216 8.08425 7.8216 8.31499V7.52999C7.82904 7.40259 7.8106 7.27501 7.7674 7.15494C7.72419 7.03486 7.65711 6.92478 7.57021 6.83133C7.4833 6.73789 7.37837 6.66301 7.26174 6.61122C7.14511 6.55943 7.0192 6.53179 6.8916 6.52999C6.76499 6.52778 6.63928 6.5516 6.52225 6.59996C6.40521 6.64832 6.29936 6.72019 6.21124 6.81113C6.12311 6.90206 6.0546 7.01012 6.00994 7.12861C5.96528 7.24711 5.94542 7.37351 5.9516 7.49999V7.44499C5.95364 7.33018 5.93252 7.21613 5.88952 7.10966C5.84652 7.00319 5.78251 6.90647 5.70131 6.82528C5.62012 6.74408 5.5234 6.68007 5.41693 6.63707C5.31046 6.59407 5.19641 6.57295 5.0816 6.57499C4.85086 6.57499 4.62958 6.66665 4.46642 6.8298C4.30326 6.99296 4.2116 7.21425 4.2116 7.44499V8.90999C4.23157 8.79858 4.22657 8.68413 4.19696 8.57489C4.16736 8.46565 4.11388 8.36434 4.04038 8.27827C3.96689 8.1922 3.87522 8.1235 3.77197 8.07714C3.66872 8.03078 3.55646 8.00791 3.44331 8.01017C3.33015 8.01243 3.2189 8.03978 3.11759 8.09023C3.01627 8.14068 2.92742 8.21299 2.85743 8.30193C2.78743 8.39087 2.73805 8.49424 2.71283 8.60458C2.68762 8.71491 2.6872 8.82947 2.7116 8.93999V15.175C2.70761 16.0334 3.04446 16.8584 3.64819 17.4687C4.25192 18.0789 5.07317 18.4247 5.9316 18.43C6.6389 18.4306 7.3384 18.2823 7.98452 17.9945C8.63065 17.7068 9.2089 17.2861 9.6816 16.76L12.2766 13.945C12.3633 13.857 12.4119 13.7385 12.4119 13.615C12.4119 13.4915 12.3633 13.3729 12.2766 13.285V13.285C12.0108 13.0129 11.6481 12.857 11.2678 12.8514C10.8874 12.8458 10.5203 12.9909 10.2466 13.255V13.255Z" stroke="#45413C" stroke-width="0.5" stroke-linecap="round" stroke-linejoin="round"/>
<path d="M17.2666 17.23H22.1016V21.125C22.1016 21.2576 22.0489 21.3848 21.9552 21.4785C21.8614 21.5723 21.7342 21.625 21.6016 21.625H17.7466C17.614 21.625 17.4868 21.5723 17.3931 21.4785C17.2993 21.3848 17.2466 21.2576 17.2466 21.125V17.23H17.2666Z" fill="#FFCEBF"/>
<path d="M22.1066 18.935C20.5567 19.575 18.8165 19.575 17.2666 18.935V17.23H22.1066V18.935Z" fill="#FFB59E"/>
<path d="M17.2666 17.23H22.1016V21.125C22.1016 21.2576 22.0489 21.3848 21.9552 21.4785C21.8614 21.5723 21.7342 21.625 21.6016 21.625H17.7466C17.614 21.625 17.4868 21.5723 17.3931 21.4785C17.2993 21.3848 17.2466 21.2576 17.2466 21.125V17.23H17.2666Z" stroke="#45413C" stroke-width="0.5" stroke-linecap="round" stroke-linejoin="round"/>
<path d="M15.6566 13.255L16.3416 13.9V8.36499C16.3383 8.24744 16.3581 8.13039 16.4001 8.02053C16.442 7.91067 16.5052 7.81014 16.586 7.7247C16.6668 7.63926 16.7636 7.57058 16.871 7.52259C16.9783 7.47459 17.0941 7.44822 17.2116 7.44499C17.4423 7.44499 17.6636 7.53665 17.8268 7.6998C17.9899 7.86296 18.0816 8.08425 18.0816 8.31499V7.52999C18.0742 7.40259 18.0926 7.27501 18.1358 7.15494C18.179 7.03486 18.2461 6.92478 18.333 6.83133C18.4199 6.73789 18.5248 6.66301 18.6415 6.61122C18.7581 6.55943 18.884 6.53179 19.0116 6.52999C19.1382 6.52778 19.2639 6.5516 19.381 6.59996C19.498 6.64832 19.6039 6.72019 19.692 6.81113C19.7801 6.90206 19.8486 7.01012 19.8933 7.12861C19.9379 7.24711 19.9578 7.37351 19.9516 7.49999V7.44499C19.9496 7.33018 19.9707 7.21613 20.0137 7.10966C20.0567 7.00319 20.1207 6.90647 20.2019 6.82528C20.2831 6.74408 20.3798 6.68007 20.4863 6.63707C20.5928 6.59407 20.7068 6.57295 20.8216 6.57499C21.0523 6.57499 21.2736 6.66665 21.4368 6.8298C21.5999 6.99296 21.6916 7.21425 21.6916 7.44499V8.90999C21.6716 8.79858 21.6766 8.68413 21.7062 8.57489C21.7359 8.46565 21.7893 8.36434 21.8628 8.27827C21.9363 8.1922 22.028 8.1235 22.1312 8.07714C22.2345 8.03078 22.3467 8.00791 22.4599 8.01017C22.5731 8.01243 22.6843 8.03978 22.7856 8.09023C22.8869 8.14068 22.9758 8.21299 23.0458 8.30193C23.1158 8.39087 23.1652 8.49424 23.1904 8.60458C23.2156 8.71491 23.216 8.82947 23.1916 8.93999V15.175C23.1956 16.0334 22.8587 16.8584 22.255 17.4687C21.6513 18.0789 20.83 18.4247 19.9716 18.43C19.2643 18.4306 18.5648 18.2823 17.9187 17.9945C17.2726 17.7068 16.6943 17.2861 16.2216 16.76L13.6266 13.945C13.5399 13.857 13.4913 13.7385 13.4913 13.615C13.4913 13.4915 13.5399 13.3729 13.6266 13.285C13.8924 13.0129 14.2551 12.857 14.6354 12.8514C15.0158 12.8458 15.3829 12.9909 15.6566 13.255Z" fill="#FFCEBF"/>
<path d="M20.8066 7.58499C20.6931 7.58497 20.5806 7.60757 20.4759 7.65147C20.3712 7.69538 20.2763 7.7597 20.1967 7.84069C20.1171 7.92168 20.0544 8.01771 20.0123 8.12318C19.9703 8.22865 19.9496 8.34145 19.9516 8.45499V8.49999C19.9516 8.25466 19.8542 8.01938 19.6807 7.84591C19.5072 7.67244 19.2719 7.57499 19.0266 7.57499C18.899 7.57679 18.7731 7.60443 18.6565 7.65622C18.5398 7.70801 18.4349 7.78289 18.348 7.87633C18.2611 7.96978 18.194 8.07986 18.1508 8.19994C18.1076 8.32001 18.0892 8.44759 18.0966 8.57499V9.34999C18.0914 9.12011 17.9953 8.90166 17.8295 8.74239C17.6636 8.58311 17.4415 8.49596 17.2116 8.49999C17.0943 8.50258 16.9786 8.52834 16.8713 8.5758C16.764 8.62325 16.6671 8.69146 16.5863 8.7765C16.5054 8.86155 16.4422 8.96174 16.4002 9.07131C16.3582 9.18089 16.3383 9.29769 16.3416 9.41499V8.36499C16.3383 8.24744 16.3581 8.13039 16.4001 8.02053C16.442 7.91067 16.5052 7.81014 16.586 7.7247C16.6668 7.63926 16.7636 7.57058 16.871 7.52259C16.9783 7.47459 17.0941 7.44822 17.2116 7.44499C17.4423 7.44499 17.6636 7.53665 17.8268 7.6998C17.9899 7.86296 18.0816 8.08425 18.0816 8.31499V7.52999C18.0742 7.40259 18.0926 7.27501 18.1358 7.15494C18.179 7.03486 18.2461 6.92478 18.333 6.83133C18.4199 6.73789 18.5248 6.66301 18.6415 6.61122C18.7581 6.55943 18.884 6.53179 19.0116 6.52999C19.1382 6.52778 19.2639 6.5516 19.381 6.59996C19.498 6.64832 19.6039 6.72019 19.692 6.81113C19.7801 6.90206 19.8486 7.01012 19.8933 7.12861C19.9379 7.24711 19.9578 7.37351 19.9516 7.49999V7.44499C19.9496 7.33018 19.9707 7.21613 20.0137 7.10966C20.0567 7.00319 20.1207 6.90647 20.2019 6.82528C20.2831 6.74408 20.3798 6.68007 20.4863 6.63707C20.5928 6.59407 20.7068 6.57295 20.8216 6.57499C21.0523 6.57499 21.2736 6.66665 21.4368 6.8298C21.5999 6.99296 21.6916 7.21425 21.6916 7.44499V8.47499C21.6943 8.35779 21.6733 8.24126 21.6299 8.13238C21.5864 8.0235 21.5214 7.92453 21.4388 7.84141C21.3561 7.75828 21.2575 7.69272 21.1489 7.64865C21.0402 7.60459 20.9238 7.58293 20.8066 7.58499Z" fill="#FFDCD1"/>
<path d="M22.4516 9.15999C22.3514 9.15933 22.252 9.1785 22.1592 9.2164C22.0664 9.2543 21.9821 9.31018 21.911 9.38081C21.8399 9.45145 21.7834 9.53546 21.7449 9.62799C21.7064 9.72053 21.6866 9.81976 21.6866 9.91999V8.88999C21.6666 8.77859 21.6716 8.66414 21.7012 8.5549C21.7308 8.44566 21.7843 8.34435 21.8578 8.25828C21.9313 8.1722 22.023 8.10351 22.1262 8.05715C22.2295 8.01078 22.3417 7.98791 22.4549 7.99017C22.568 7.99244 22.6793 8.01978 22.7806 8.07023C22.8819 8.12069 22.9708 8.19299 23.0408 8.28193C23.1108 8.37088 23.1601 8.47424 23.1854 8.58458C23.2106 8.69492 23.211 8.80947 23.1866 8.91999V9.94999C23.1934 9.74791 23.1198 9.55137 22.9821 9.40333C22.8444 9.2553 22.6536 9.16781 22.4516 9.15999Z" fill="#FFDCD1"/>
<path d="M19.6866 14.625C18.5132 14.5148 17.3333 14.4931 16.1566 14.56C15.3116 14.06 14.3366 13.67 13.7816 14.105L13.6366 13.945C13.5499 13.857 13.5013 13.7385 13.5013 13.615C13.5013 13.4915 13.5499 13.3729 13.6366 13.285C13.9011 13.0218 14.2575 12.8717 14.6306 12.8661C15.0036 12.8605 15.3643 12.9999 15.6366 13.255L16.3216 13.9H18.0866C18.3901 13.8965 18.6907 13.9596 18.9671 14.0848C19.2436 14.2101 19.4892 14.3945 19.6866 14.625Z" fill="#FFDCD1"/>
<path d="M21.6766 8.88998V11.875" stroke="#45413C" stroke-width="0.5" stroke-linecap="round" stroke-linejoin="round"/>
<path d="M19.9366 7.47998V11.875" stroke="#45413C" stroke-width="0.5" stroke-linecap="round" stroke-linejoin="round"/>
<path d="M18.0816 8.315V11.875" stroke="#45413C" stroke-width="0.5" stroke-linecap="round" stroke-linejoin="round"/>
<path d="M16.3416 13.9H18.1066C18.4067 13.8994 18.7034 13.9639 18.9762 14.0891C19.249 14.2142 19.4914 14.3971 19.6866 14.625" stroke="#45413C" stroke-width="0.5" stroke-linecap="round" stroke-linejoin="round"/>
<path d="M15.6566 13.255L16.3416 13.9V8.36499C16.3383 8.24744 16.3581 8.13039 16.4001 8.02053C16.442 7.91067 16.5052 7.81014 16.586 7.7247C16.6668 7.63926 16.7636 7.57058 16.871 7.52259C16.9783 7.47459 17.0941 7.44822 17.2116 7.44499C17.4423 7.44499 17.6636 7.53665 17.8268 7.6998C17.9899 7.86296 18.0816 8.08425 18.0816 8.31499V7.52999C18.0742 7.40259 18.0926 7.27501 18.1358 7.15494C18.179 7.03486 18.2461 6.92478 18.333 6.83133C18.4199 6.73789 18.5248 6.66301 18.6415 6.61122C18.7581 6.55943 18.884 6.53179 19.0116 6.52999C19.1382 6.52778 19.2639 6.5516 19.381 6.59996C19.498 6.64832 19.6039 6.72019 19.692 6.81113C19.7801 6.90206 19.8486 7.01012 19.8933 7.12861C19.9379 7.24711 19.9578 7.37351 19.9516 7.49999V7.44499C19.9496 7.33018 19.9707 7.21613 20.0137 7.10966C20.0567 7.00319 20.1207 6.90647 20.2019 6.82528C20.2831 6.74408 20.3798 6.68007 20.4863 6.63707C20.5928 6.59407 20.7068 6.57295 20.8216 6.57499C21.0523 6.57499 21.2736 6.66665 21.4368 6.8298C21.5999 6.99296 21.6916 7.21425 21.6916 7.44499V8.90999C21.6716 8.79858 21.6766 8.68413 21.7062 8.57489C21.7359 8.46565 21.7893 8.36434 21.8628 8.27827C21.9363 8.1922 22.028 8.1235 22.1312 8.07714C22.2345 8.03078 22.3467 8.00791 22.4599 8.01017C22.5731 8.01243 22.6843 8.03978 22.7856 8.09023C22.8869 8.14068 22.9758 8.21299 23.0458 8.30193C23.1158 8.39087 23.1652 8.49424 23.1904 8.60458C23.2156 8.71491 23.216 8.82947 23.1916 8.93999V15.175C23.1956 16.0334 22.8587 16.8584 22.255 17.4687C21.6513 18.0789 20.83 18.4247 19.9716 18.43C19.2643 18.4306 18.5648 18.2823 17.9187 17.9945C17.2726 17.7068 16.6943 17.2861 16.2216 16.76L13.6266 13.945C13.5399 13.857 13.4913 13.7385 13.4913 13.615C13.4913 13.4915 13.5399 13.3729 13.6266 13.285V13.285C13.8924 13.0129 14.2551 12.857 14.6354 12.8514C15.0158 12.8458 15.3829 12.9909 15.6566 13.255V13.255Z" stroke="#45413C" stroke-width="0.5" stroke-linecap="round" stroke-linejoin="round"/>
</svg>
